<svg width="47" height="26" viewBox="0 0 47 26" fill="none" xmlns="http://www.w3.org/2000/svg">
<g clip-path="url(#clip0_31_7)">
<path d="M41.5116 21.7899C41.5298 21.9754 41.5033 22.1625 41.4344 22.3354L41.3573 22.4132C41.1807 22.5845 40.9453 22.6801 40.7003 22.6801C40.4553 22.6801 40.2199 22.5845 40.0434 22.4132L39.9662 22.3354C39.8118 22.2576 39.6568 22.1012 39.5025 22.0234L38.1108 20.854C36.5547 19.886 34.8187 19.2492 33.0095 18.9827C31.4386 18.8031 29.8501 18.8556 28.2942 19.1384H28.1398L27.2124 19.3726C26.9803 19.4504 26.8259 19.4504 26.5938 19.5282C26.4166 19.5904 26.236 19.6424 26.0529 19.6839H25.9757C25.7436 19.7617 25.5892 19.8395 25.357 19.918C24.8793 20.0932 24.4143 20.3017 23.9653 20.542L23.811 20.6198H23.7338L23.2701 20.854C23.1929 20.854 23.1158 20.9318 23.0379 20.9318C22.022 21.4216 21.0629 22.023 20.178 22.7252C19.8686 22.9594 19.6371 23.115 19.3278 23.3492C19.2506 23.427 19.0956 23.5048 19.0184 23.5833C19.0082 23.5831 18.9981 23.585 18.9887 23.5889C18.9792 23.5927 18.9707 23.5985 18.9635 23.6057C18.9563 23.613 18.9506 23.6216 18.9468 23.6312C18.943 23.6407 18.9411 23.6509 18.9412 23.6611C17.9911 24.3821 17.0874 25.1633 16.2356 26C16.2339 25.5226 16.1555 25.0486 16.0035 24.5964C15.5889 22.6733 14.589 20.9288 13.1435 19.6067C8.58249 15.1631 0.156956 17.6576 0.00195694 17.6576C12.2907 12.1231 17.2382 21.166 17.2382 21.166C18.9821 18.8594 21.3414 17.1016 24.0399 16.0984C24.1809 16.0121 24.3394 15.9589 24.5036 15.9427C24.6579 15.8649 24.8129 15.8649 24.9673 15.7871C25.6222 15.5328 26.2937 15.3243 26.977 15.1631C27.75 15.0075 28.4459 14.8511 29.1418 14.7733C29.7062 14.7085 30.2743 14.6825 30.8422 14.6955C32.3688 14.7068 33.8832 14.9701 35.3254 15.4751C35.9124 15.6875 36.4811 15.9483 37.0258 16.2547V16.2547C37.626 16.5535 38.1742 16.9484 38.649 17.4242C39.7499 18.368 40.6 19.5738 41.1225 20.9325C41.3197 21.1819 41.4534 21.4763 41.5116 21.7899V21.7899Z" fill="#303030"/>
<path d="M47.002 9.06328V9.45309C47.0021 9.46336 47.0003 9.47356 46.9965 9.48309C46.9926 9.49261 46.987 9.50126 46.9798 9.50852C46.9725 9.51579 46.964 9.52151 46.9545 9.52536C46.9451 9.52921 46.935 9.5311 46.9248 9.53092C46.7704 9.76507 46.4611 9.76507 46.0746 9.53092H45.9974C45.9093 9.43452 45.8045 9.35517 45.6881 9.29677C45.3787 9.06262 45.1472 8.82913 44.8379 8.59498C43.8838 7.96624 42.7997 7.5662 41.6686 7.42554C40.6913 7.29643 39.7 7.3227 38.7308 7.50337H38.6536C38.4649 7.51873 38.2811 7.57164 38.1127 7.65903C37.9584 7.65903 37.8806 7.73686 37.7262 7.73686C37.649 7.73686 37.494 7.81469 37.4169 7.81469H37.3397C37.1854 7.89252 37.1075 7.89252 36.9532 7.97035C36.6505 8.0524 36.3633 8.18409 36.103 8.36017L36.0258 8.438H35.9486C35.8715 8.51583 35.7943 8.51583 35.6393 8.59366C35.5621 8.59366 35.5621 8.67149 35.4849 8.67149C34.8529 8.96582 34.2563 9.33207 33.7067 9.76309C33.5524 9.91875 33.3202 9.99724 33.1659 10.1529C33.0887 10.2307 33.0115 10.2307 33.0115 10.3086H32.9343C32.3156 10.7762 31.7748 11.3223 31.2339 11.79C31.2201 11.4986 31.1682 11.2103 31.0796 10.9325C30.8035 9.73941 30.185 8.65475 29.3013 7.81403C26.4414 5.00752 21.2617 6.56677 21.1073 6.56677C28.7592 3.13695 31.8526 8.74998 31.8526 8.74998C32.957 7.3165 34.4261 6.21186 36.1036 5.55365C36.1808 5.55365 36.258 5.47582 36.413 5.47582C36.4902 5.47582 36.5673 5.39799 36.6452 5.39799C37.0456 5.23278 37.4594 5.10236 37.8819 5.00818C38.3387 4.89231 38.8042 4.814 39.2736 4.77403C39.6601 4.77403 39.9695 4.6962 40.2788 4.6962C41.2264 4.68642 42.1683 4.84471 43.0616 5.16384C43.4481 5.3195 43.7574 5.47582 44.0668 5.63148C44.4142 5.84697 44.7497 6.08125 45.072 6.33328C45.7785 6.902 46.3138 7.65801 46.6181 8.51649C46.9222 8.7513 47.002 8.90762 47.002 9.06328Z" fill="#303030"/>
<path d="M25.3551 2.49456V2.65022C25.2924 2.70982 25.2094 2.74301 25.1232 2.74301C25.0371 2.74301 24.9541 2.70982 24.8914 2.65022V2.65022C24.8142 2.65022 24.8142 2.57239 24.7371 2.57239C24.6024 2.42009 24.4461 2.28873 24.2734 2.18258V2.18258C23.76 1.84883 23.1789 1.63559 22.573 1.55862C22.0326 1.46761 21.4791 1.49414 20.9497 1.63645H20.8725C20.7954 1.63645 20.6404 1.71428 20.5632 1.71428C20.486 1.71428 20.4089 1.79211 20.331 1.79211C20.2532 1.79211 20.2539 1.79211 20.1767 1.86994H20.0995C20.0223 1.86994 19.9452 1.94777 19.8673 1.94777L19.4037 2.18192H19.3265C19.2493 2.18192 19.2493 2.25975 19.1721 2.25975H19.095C18.7369 2.42752 18.3996 2.63693 18.0898 2.88371C18.0126 2.96154 17.8576 3.03937 17.7804 3.11786L17.7032 3.19569C17.3939 3.42984 17.0846 3.74117 16.7759 3.97532C16.7881 3.81543 16.7616 3.65495 16.6987 3.50768C16.5643 2.85622 16.2416 2.2595 15.7713 1.79277C14.2252 0.31135 11.3653 1.09097 11.2881 1.09097C15.4626 -0.780255 17.163 2.26041 17.163 2.26041C17.7664 1.48605 18.5684 0.892985 19.4821 0.545499C19.5593 0.545499 19.5593 0.467668 19.6365 0.467668C19.7136 0.467668 19.7136 0.38984 19.7908 0.38984L20.4867 0.155687C20.7189 0.0778566 20.9504 0.0778566 21.2597 2.60882e-05H21.8006C22.3249 -0.00443289 22.8467 0.0745916 23.3466 0.234179C23.5327 0.297889 23.7135 0.376178 23.8875 0.46833V0.46833C24.0965 0.552111 24.2821 0.685893 24.4284 0.858142C24.8181 1.1567 25.1134 1.56296 25.2786 2.02758C25.3307 2.17759 25.3566 2.3356 25.3551 2.49456V2.49456Z" fill="#303030"/>
</g>
<defs>
<clipPath id="clip0_31_7">
<rect width="47" height="26" fill="white"/>
</clipPath>
</defs>
</svg>
