<svg width="33" height="33" viewBox="0 0 33 33" fill="none" xmlns="http://www.w3.org/2000/svg">
<path d="M16.3655 3.39103C23.7592 3.39103 29.7745 9.40631 29.7745 16.8C29.7745 24.1938 23.7592 30.2091 16.3655 30.2091C8.97174 30.2091 2.95646 24.1938 2.95646 16.8C2.95646 9.40631 8.97174 3.39103 16.3655 3.39103ZM16.3655 0.709229C7.47932 0.709229 0.274658 7.91389 0.274658 16.8C0.274658 25.6862 7.47932 32.8909 16.3655 32.8909C25.2516 32.8909 32.4563 25.6862 32.4563 16.8C32.4563 7.91389 25.2516 0.709229 16.3655 0.709229ZM13.6837 14.1182H11.0019V16.8H13.6837V24.8455H17.7064V16.8H20.1468L20.3882 14.1182H17.7064V13.0013C17.7064 12.3603 17.8351 12.1069 18.4546 12.1069H20.3882V8.75464H17.1647C14.7537 8.75464 13.6837 9.81663 13.6837 11.8494V14.1182Z" fill="#141417"/>
</svg>
