<svg width="34" height="33" viewBox="0 0 34 33" fill="none" xmlns="http://www.w3.org/2000/svg">
<path d="M16.9788 3.39103C24.3725 3.39103 30.3878 9.40631 30.3878 16.8C30.3878 24.1938 24.3725 30.2091 16.9788 30.2091C9.58509 30.2091 3.5698 24.1938 3.5698 16.8C3.5698 9.40631 9.58509 3.39103 16.9788 3.39103ZM16.9788 0.709229C8.09266 0.709229 0.888 7.91389 0.888 16.8C0.888 25.6862 8.09266 32.8909 16.9788 32.8909C25.865 32.8909 33.0696 25.6862 33.0696 16.8C33.0696 7.91389 25.865 0.709229 16.9788 0.709229ZM14.297 11.4364C14.297 12.1833 13.6976 12.7881 12.9561 12.7881C12.2146 12.7881 11.6152 12.1847 11.6152 11.4364C11.6152 10.6896 12.2146 10.0848 12.9561 10.0848C13.6976 10.0848 14.297 10.6909 14.297 11.4364V11.4364ZM14.297 14.1182H11.6152V22.1637H14.297V14.1182ZM18.3197 14.1182H15.6379V22.1637H18.3197V18.3273C18.3197 16.0183 21.0042 15.8051 21.0042 18.3273V22.1637H23.6833V17.6596C23.6833 13.256 19.489 13.417 18.3197 15.5838V14.1182Z" fill="#141417"/>
</svg>
