<svg width="33" height="33" viewBox="0 0 33 33" fill="none" xmlns="http://www.w3.org/2000/svg">
<path d="M16.5922 3.39103C23.9859 3.39103 30.0012 9.40631 30.0012 16.8C30.0012 24.1938 23.9859 30.2091 16.5922 30.2091C9.19843 30.2091 3.18315 24.1938 3.18315 16.8C3.18315 9.40631 9.19843 3.39103 16.5922 3.39103ZM16.5922 0.709229C7.70601 0.709229 0.501343 7.91389 0.501343 16.8C0.501343 25.6862 7.70601 32.8909 16.5922 32.8909C25.4783 32.8909 32.683 25.6862 32.683 16.8C32.683 7.91389 25.4783 0.709229 16.5922 0.709229ZM16.5922 10.2055C18.7403 10.2055 18.9951 10.2135 19.8438 10.2524C22.0255 10.3517 23.0419 11.3855 23.1425 13.5497C23.18 14.3985 23.1881 14.6519 23.1881 16.8C23.1881 18.9482 23.18 19.2029 23.1425 20.0504C23.0419 22.2133 22.0268 23.2498 19.8438 23.349C18.9951 23.3866 18.7416 23.3959 16.5922 23.3959C14.444 23.3959 14.1893 23.3879 13.3418 23.349C11.1561 23.2484 10.1438 22.2106 10.0432 20.0504C10.0057 19.2029 9.99627 18.9482 9.99627 16.8C9.99627 14.6519 10.0057 14.3972 10.0432 13.5497C10.1424 11.3841 11.1588 10.3503 13.3418 10.2511C14.1893 10.2122 14.444 10.2055 16.5922 10.2055V10.2055ZM16.5922 8.75464C14.4065 8.75464 14.1343 8.76402 13.2748 8.80425C10.3516 8.93834 8.72911 10.5595 8.59502 13.4827C8.55614 14.3422 8.54675 14.6157 8.54675 16.8C8.54675 18.9857 8.55614 19.2593 8.59502 20.1174C8.72911 23.0393 10.3516 24.6631 13.2748 24.7972C14.1343 24.8361 14.4065 24.8455 16.5922 24.8455C18.7778 24.8455 19.0514 24.8361 19.9109 24.7972C22.8287 24.6631 24.4579 23.0419 24.5893 20.1174C24.6282 19.2593 24.6376 18.9857 24.6376 16.8C24.6376 14.6157 24.6282 14.3422 24.5893 13.4827C24.4579 10.5635 22.8341 8.937 19.9109 8.80425C19.0514 8.76402 18.7778 8.75464 16.5922 8.75464V8.75464ZM16.5922 12.6687C14.3113 12.6687 12.4608 14.5178 12.4608 16.8C12.4608 19.0823 14.3113 20.9314 16.5922 20.9314C18.873 20.9314 20.7235 19.0823 20.7235 16.8C20.7235 14.5192 18.873 12.6687 16.5922 12.6687ZM16.5922 19.4818C15.1105 19.4818 13.9104 18.2817 13.9104 16.8C13.9104 15.3197 15.1105 14.1182 16.5922 14.1182C18.0725 14.1182 19.2753 15.3183 19.2753 16.8C19.2753 18.2817 18.0725 19.4818 16.5922 19.4818ZM20.8857 11.541C20.3534 11.541 19.9203 11.9728 19.9203 12.5065C19.9203 13.0388 20.352 13.4719 20.8857 13.4719C21.4194 13.4719 21.8525 13.0402 21.8525 12.5065C21.8525 11.9728 21.4207 11.541 20.8857 11.541Z" fill="#141417"/>
</svg>
