<svg width="25" height="25" viewBox="0 0 25 25" fill="none" xmlns="http://www.w3.org/2000/svg">
<g clip-path="url(#clip0_7_43)">
<path d="M12.2634 2.5376C15.4594 2.5376 18.2634 5.1556 18.2634 8.1396C18.2634 11.2326 15.7704 15.2716 12.2634 20.8006C8.75643 15.2716 6.26343 11.2326 6.26343 8.1396C6.26343 5.1556 9.06743 2.5376 12.2634 2.5376ZM12.2634 0.537598C8.06543 0.537598 4.26343 3.9406 4.26343 8.1396C4.26343 12.3376 7.73243 17.3496 12.2634 24.5376C16.7944 17.3496 20.2634 12.3376 20.2634 8.1396C20.2634 3.9406 16.4624 0.537598 12.2634 0.537598V0.537598ZM12.2634 11.5376C10.6064 11.5376 9.26343 10.1946 9.26343 8.5376C9.26343 6.8806 10.6064 5.5376 12.2634 5.5376C13.9204 5.5376 15.2634 6.8806 15.2634 8.5376C15.2634 10.1946 13.9204 11.5376 12.2634 11.5376Z" fill="#141417"/>
</g>
<defs>
<clipPath id="clip0_7_43">
<rect width="24" height="24" fill="white" transform="translate(0.263428 0.537598)"/>
</clipPath>
</defs>
</svg>
