<svg width="25" height="24" viewBox="0 0 25 24" fill="none" xmlns="http://www.w3.org/2000/svg">
<g clip-path="url(#clip0_6_7)">
<path d="M1.02942 24L2.71642 17.837C1.67542 16.033 1.12842 13.988 1.12942 11.891C1.13242 5.335 6.46742 0 13.0224 0C16.2034 0.001 19.1894 1.24 21.4354 3.488C23.6804 5.736 24.9164 8.724 24.9154 11.902C24.9124 18.459 19.5774 23.794 13.0224 23.794C11.0324 23.793 9.07142 23.294 7.33442 22.346L1.02942 24V24ZM7.62642 20.193C9.30242 21.188 10.9024 21.784 13.0184 21.785C18.4664 21.785 22.9044 17.351 22.9074 11.9C22.9094 6.438 18.4924 2.01 13.0264 2.008C7.57442 2.008 3.13942 6.442 3.13742 11.892C3.13642 14.117 3.78842 15.783 4.88342 17.526L3.88442 21.174L7.62642 20.193V20.193ZM19.0134 14.729C18.9394 14.605 18.7414 14.531 18.4434 14.382C18.1464 14.233 16.6854 13.514 16.4124 13.415C16.1404 13.316 15.9424 13.266 15.7434 13.564C15.5454 13.861 14.9754 14.531 14.8024 14.729C14.6294 14.927 14.4554 14.952 14.1584 14.803C13.8614 14.654 12.9034 14.341 11.7684 13.328C10.8854 12.54 10.2884 11.567 10.1154 11.269C9.94242 10.972 10.0974 10.811 10.2454 10.663C10.3794 10.53 10.5424 10.316 10.6914 10.142C10.8424 9.97 10.8914 9.846 10.9914 9.647C11.0904 9.449 11.0414 9.275 10.9664 9.126C10.8914 8.978 10.2974 7.515 10.0504 6.92C9.80842 6.341 9.56342 6.419 9.38142 6.41L8.81142 6.4C8.61342 6.4 8.29142 6.474 8.01942 6.772C7.74742 7.07 6.97942 7.788 6.97942 9.251C6.97942 10.714 8.04442 12.127 8.19242 12.325C8.34142 12.523 10.2874 15.525 13.2684 16.812C13.9774 17.118 14.5314 17.301 14.9624 17.438C15.6744 17.664 16.3224 17.632 16.8344 17.556C17.4054 17.471 18.5924 16.837 18.8404 16.143C19.0884 15.448 19.0884 14.853 19.0134 14.729V14.729Z" fill="#141417"/>
</g>
<defs>
<clipPath id="clip0_6_7">
<rect width="24" height="24" fill="white" transform="translate(0.972412)"/>
</clipPath>
</defs>
</svg>
